<svg xmlns="http://www.w3.org/2000/svg" 
viewBox = "320 200 480 410"
width="480"
height="410">
<g fill="None" stroke="#000000" stroke-opacity="1.00" stroke-width="1.5" stroke-linecap="round" stroke-linejoin="round">
  <!-- Part 1 -->
  <path d="M 716.00 428.00 C 716.72 433.05 716.18 439.14 716.00 444.00 C 716.12 445.99 715.91 448.01 716.00 450.00 C 732.41 447.35 749.54 439.76 766.00 442.00 C 748.98 444.27 732.49 448.62 716.00 453.00 C 715.28 468.46 715.51 479.30 715.00 494.00 C 714.49 508.70 716.87 525.44 718.00 540.00 C 710.11 541.46 710.99 530.28 710.07 523.93 C 709.16 517.58 712.57 508.18 711.00 501.00 C 709.43 493.82 710.38 485.68 710.00 478.00 C 709.62 470.32 710.94 462.62 711.00 455.00 C 698.86 458.85 683.72 458.72 674.00 467.00 C 660.22 458.36 680.84 458.96 689.67 456.67 C 698.50 454.38 713.51 453.78 712.00 441.00 C 710.49 428.22 710.80 418.18 708.00 406.00 C 698.45 414.19 699.42 418.03 689.25 427.25 C 679.07 436.47 671.89 418.88 677.00 408.00 C 669.84 410.15 658.95 424.33 654.00 411.00 C 648.65 413.39 644.50 416.87 639.77 420.77 C 635.04 424.67 626.30 428.91 626.00 420.00 C 625.70 411.09 628.10 406.41 629.78 398.78 C 631.45 391.14 632.90 386.23 634.93 378.93 C 636.95 371.62 638.74 367.44 640.78 359.78 C 642.81 352.12 643.10 346.14 643.00 337.00 C 642.90 327.86 629.63 341.53 634.00 335.00 C 605.78 342.81 584.21 369.04 573.00 395.00 C 579.90 390.43 586.83 388.99 594.22 385.22 C 601.61 381.45 616.41 383.62 612.22 393.22 C 608.03 402.83 604.26 403.26 597.25 409.25 C 590.24 415.23 587.45 423.13 597.08 426.92 C 606.70 430.72 613.80 430.97 623.00 427.00 C 606.33 446.28 549.66 438.45 566.00 405.00 C 561.23 406.35 562.87 400.73 561.00 399.00 C 557.12 404.05 547.45 408.82 545.00 400.00 C 537.59 408.51 525.32 404.14 533.31 394.31 C 541.29 384.47 537.71 381.79 543.98 370.98 C 550.24 360.16 539.98 352.29 529.98 355.98 C 519.98 359.66 513.01 360.41 504.92 364.92 C 496.84 369.44 489.42 372.20 482.77 376.77 C 476.12 381.34 463.38 385.56 469.00 390.00 C 460.05 391.38 463.78 406.47 462.00 414.00 C 473.72 420.02 487.20 421.40 497.00 431.00 C 496.03 424.00 500.54 418.89 499.93 411.93 C 499.31 404.96 504.52 398.72 501.00 391.00 C 497.48 383.28 508.18 378.86 508.00 387.00 C 507.81 395.14 508.45 401.15 507.00 408.00 C 505.55 414.85 500.75 417.36 502.00 425.00 C 503.25 432.64 499.67 438.67 502.00 446.00 C 493.99 445.24 492.47 432.63 482.92 430.08 C 473.38 427.52 470.68 418.81 461.00 417.00 C 456.62 443.68 450.88 474.93 443.22 500.22 C 435.57 525.51 426.09 548.31 409.70 568.70 C 393.30 589.09 362.44 602.66 340.75 584.25 C 319.07 565.83 324.29 528.75 335.25 506.25 C 346.22 483.76 362.75 467.08 380.70 449.70 C 398.64 432.31 418.42 418.78 436.00 403.00 C 428.57 396.93 421.41 399.17 413.33 393.67 C 405.24 388.18 419.08 382.66 424.70 380.70 C 430.32 378.73 438.85 371.96 445.23 369.23 C 451.61 366.50 459.40 359.65 466.00 357.00 C 467.31 343.67 469.42 327.77 472.00 315.00 C 474.58 302.23 478.84 289.67 482.98 277.98 C 487.11 266.28 493.46 257.03 500.25 247.25 C 507.04 237.47 513.49 229.47 523.25 222.25 C 533.00 215.02 544.77 207.31 558.02 210.98 C 571.27 214.64 570.33 235.01 567.00 246.00 C 563.68 256.99 557.99 269.16 552.08 279.08 C 546.18 289.00 539.50 297.92 531.25 306.25 C 523.00 314.58 517.27 323.34 507.25 330.25 C 497.22 337.16 491.93 345.28 480.25 351.25 C 468.56 357.22 464.82 370.12 465.00 384.00 C 475.36 379.25 482.82 373.74 493.08 368.08 C 503.34 362.42 512.58 360.07 523.68 354.68 C 534.78 349.28 552.11 352.27 548.07 367.07 C 544.04 381.88 542.82 386.23 536.00 399.00 C 541.30 396.86 550.26 392.68 550.00 402.00 C 556.07 402.49 558.24 394.00 564.00 394.00 C 564.03 407.46 571.21 394.80 573.77 388.77 C 576.33 382.74 580.76 376.36 584.75 370.75 C 588.74 365.15 593.20 360.57 598.25 355.25 C 603.30 349.92 607.38 345.99 613.75 341.75 C 620.11 337.50 624.93 335.29 632.68 331.68 C 640.43 328.07 649.08 333.50 647.00 343.00 C 644.92 352.50 645.62 359.11 642.67 367.67 C 639.72 376.24 638.59 381.34 636.01 390.01 C 633.43 398.68 632.75 403.57 630.02 413.02 C 627.30 422.48 636.07 424.05 640.00 414.00 C 646.51 417.53 654.26 402.50 659.00 413.00 C 666.24 414.88 670.42 402.96 677.03 404.03 C 683.63 405.09 677.69 422.35 681.00 427.00 C 688.05 428.04 694.51 415.82 698.25 412.25 C 701.99 408.68 710.33 392.91 712.92 401.08 C 715.51 409.25 712.28 419.73 716.00 428.00"/>
  
  <!-- Part 2 (Deduplicated Segments) -->
  <path d="M 711.00 338.00 C 707.84 337.59 706.86 331.88 703.00 332.00 C 700.55 339.46 703.61 348.99 701.00 356.00 C 700.26 347.82 696.27 339.76 698.00 331.00 C 699.73 322.24 713.91 330.42 711.00 338.00"/>
  <path d="M 792.00 437.00 C 788.47 436.78 785.28 435.22 782.00 434.00 C 782.61 425.06 792.67 430.61 792.00 437.00"/>
  <path d="M 469.00 354.00 C 478.94 349.09 488.52 341.28 497.25 334.25 C 505.98 327.22 514.38 320.37 522.25 312.25 C 530.12 304.13 538.35 295.38 544.23 286.23 C 550.11 277.08 558.14 266.19 561.02 256.02 C 563.91 245.85 571.43 226.12 562.75 217.25 C 554.06 208.39 535.37 216.85 527.08 223.08 C 518.80 229.31 510.86 237.91 503.77 246.77 C 496.68 255.63 491.36 266.81 486.78 277.78 C 482.19 288.75 478.52 301.68 475.93 313.93 C 473.34 326.17 471.18 341.40 469.00 354.00"/>
  <path d="M 465.00 361.00 C 449.08 370.57 432.98 379.97 418.00 389.00 C 424.53 394.80 433.69 397.06 441.00 402.00 C 447.11 396.12 454.89 391.80 462.00 387.00 C 462.65 378.23 464.35 369.74 465.00 361.00"/>
  <path d="M 600.00 389.00 C 591.71 388.91 580.67 392.73 577.93 400.93 C 575.19 409.13 576.53 407.18 576.92 412.91 C 577.30 418.65 567.45 411.00 566.00 413.00 C 562.01 432.04 587.31 434.94 600.00 432.00 C 587.26 431.19 585.23 417.67 591.25 410.25 C 597.27 402.82 607.88 398.94 609.00 390.00"/>
  <path d="M 461.00 391.00 C 454.56 393.91 447.26 398.89 443.00 404.00 C 448.62 404.94 453.30 408.80 458.00 412.00 C 459.57 405.17 460.21 398.03 461.00 391.00"/>
  <path d="M 572.00 402.00 C 568.89 403.72 567.18 407.61 567.00 411.00 C 570.87 410.54 571.22 405.07 572.00 402.00"/>
  <path d="M 385.00 448.00 C 379.41 453.59 373.54 459.46 368.00 465.00 C 361.87 471.32 356.61 478.60 351.00 485.00 C 355.85 486.92 349.42 496.75 346.00 492.00 C 343.50 495.54 342.28 500.21 339.00 503.00 C 339.00 506.82 341.44 502.40 343.00 502.00 C 342.15 508.29 332.14 508.99 337.00 515.00 C 332.58 512.75 330.72 522.40 334.00 524.00 C 324.79 530.14 327.95 547.71 329.67 558.33 C 331.39 568.94 335.92 578.42 345.30 584.70 C 354.68 590.98 368.83 590.83 378.98 586.98 C 389.12 583.12 396.31 577.77 403.75 569.75 C 411.19 561.73 416.22 554.95 421.70 545.70 C 427.17 536.44 430.49 526.78 434.69 516.69 C 438.90 506.61 441.24 495.08 444.22 484.22 C 447.20 473.36 450.01 461.40 452.02 450.02 C 454.04 438.64 456.37 426.53 458.00 415.00 C 451.83 411.20 445.27 408.55 439.00 405.00"/>
  <path d="M 335.00 556.00 C 335.73 559.73 338.51 562.88 338.00 567.00 C 333.51 566.36 332.56 558.36 335.00 556.00"/>
</g>
</svg>